Coordinates
version=1
nRows=12
nColumns=24
inDegrees=yes

Units are S.I. units (second, meters, Newtons, ...)
Angles are in degrees.

endheader
time	pelvis_tilt	pelvis_list	pelvis_rotation	pelvis_tx	pelvis_ty	pelvis_tz	hip_flexion_r	hip_adduction_r	hip_rotation_r	knee_angle_r	ankle_angle_r	subtalar_angle_r	mtp_angle_r	hip_flexion_l	hip_adduction_l	hip_rotation_l	knee_angle_l	ankle_angle_l	subtalar_angle_l	mtp_angle_l	lumbar_extension	lumbar_bending	lumbar_rotation
      4.92000000	     52.27223495	     -6.21256644	     -0.63789913	     -0.56984399	      1.09716913	     -0.08873370	     21.52468414	    -13.78347750	     -2.83581321	    -69.80638434	    -11.70208165	      4.97684197	      0.00000000	     23.18845803	     -9.36793059	      5.96382985	     -0.12437385	    -36.86994029	     12.30353123	      0.00000000	      0.00000000	      0.00000000	      0.00000000
      4.93000000	     52.27999396	     -6.21550784	     -0.63421493	     -0.56983753	      1.09717938	     -0.08875713	     21.51296999	    -13.78875137	     -2.84399612	    -69.80395730	    -11.69907248	      4.98892351	      0.00000000	     23.18444296	     -9.37005078	      5.99528267	     -0.12717929	    -36.87262645	     12.31217504	      0.00000000	      0.00000000	      0.00000000	      0.00000000
      4.94000000	     52.28551086	     -6.21811979	     -0.62913467	     -0.56982833	      1.09718646	     -0.08878524	     21.50209815	    -13.79160129	     -2.85013332	    -69.80011536	    -11.69472540	      5.00656185	      0.00000000	     23.18274417	     -9.37231117	      6.01901670	     -0.12869210	    -36.87052316	     12.31354896	      0.00000000	      0.00000000	      0.00000000	      0.00000000
      4.95000000	     52.28881571	     -6.22139451	     -0.62376165	     -0.56983303	      1.09718050	     -0.08878924	     21.49358750	    -13.79168865	     -2.85472631	    -69.79665085	    -11.69086461	      5.02816797	      0.00000000	     23.18302420	     -9.37487067	      6.03428983	     -0.12924604	    -36.86557118	     12.30823080	      0.00000000	      0.00000000	      0.00000000	      0.00000000
      4.96000000	     52.29088926	     -6.22612345	     -0.61934320	     -0.56985335	      1.09716297	     -0.08876671	     21.48842612	    -13.78949920	     -2.85847116	    -69.79563734	    -11.68980405	      5.05006727	      0.00000000	     23.18449281	     -9.37804498	      6.04178300	     -0.12930905	    -36.85960021	     12.29718522	      0.00000000	      0.00000000	      0.00000000	      0.00000000
      4.97000000	     52.29330608	     -6.23162896	     -0.61677552	     -0.56986839	      1.09714764	     -0.08875797	     21.48668148	    -13.78578824	     -2.86142956	    -69.79822618	    -11.69327677	      5.06749013	      0.00000000	     23.18677621	     -9.38205347	      6.04322084	     -0.12880972	    -36.85380814	     12.28145089	      0.00000000	      0.00000000	      0.00000000	      0.00000000
      4.98000000	     52.29681418	     -6.23632651	     -0.61622152	     -0.56986171	      1.09714486	     -0.08878699	     21.48728794	    -13.78157112	     -2.86292249	    -69.80366049	    -11.70157408	      5.07620717	      0.00000000	     23.18977792	     -9.38622545	      6.04047828	     -0.12714309	    -36.84846986	     12.26201474	      0.00000000	      0.00000000	      0.00000000	      0.00000000
      4.99000000	     52.30038923	     -6.23875651	     -0.61699123	     -0.56984590	      1.09715253	     -0.08882384	     21.48859990	    -13.77821663	     -2.86236723	    -69.80952292	    -11.71341277	      5.07408364	      0.00000000	     23.19286798	     -9.38900671	      6.03476748	     -0.12389492	    -36.84308410	     12.23983937	      0.00000000	      0.00000000	      0.00000000	      0.00000000
      5.00000000	     52.30257305	     -6.23797013	     -0.61784082	     -0.56983900	      1.09716295	     -0.08883134	     21.48950231	    -13.77689515	     -2.86018908	    -69.81311896	    -11.72651981	      5.06177821	      0.00000000	     23.19501562	     -9.38898281	      6.02648255	     -0.11926004	    -36.83684547	     12.21591884	      0.00000000	      0.00000000	      0.00000000	      0.00000000
      5.01000000	     52.30302921	     -6.23406837	     -0.61752392	     -0.56984384	      1.09717001	     -0.08881032	     21.48979392	    -13.77794577	     -2.85782030	    -69.81303827	    -11.73850499	      5.04232893	      0.00000000	     23.19544752	     -9.38567806	      6.01568290	     -0.11387641	    -36.82916384	     12.19135365	      0.00000000	      0.00000000	      0.00000000	      0.00000000
      5.02000000	     52.30242735	     -6.22858198	     -0.61536515	     -0.56986216	      1.09717227	     -0.08878722	     21.48951369	    -13.78077992	     -2.85686177	    -69.80987509	    -11.74758267	      5.01995671	      0.00000000	     23.19381305	     -9.37972479	      6.00276497	     -0.10853903	    -36.82003725	     12.16744655	      0.00000000	      0.00000000	      0.00000000	      0.00000000
      5.03000000	     52.30200648	     -6.22384956	     -0.61171865	     -0.56989124	      1.09717229	     -0.08877801	     21.48828472	    -13.78423857	     -2.85816143	    -69.80558267	    -11.75291108	      4.99866983	      0.00000000	     23.19031662	     -9.37269428	      5.98884528	     -0.10389062	    -36.81018965	     12.14570622	      0.00000000	      0.00000000	      0.00000000	      0.00000000
